<svg width="198" height="198" viewBox="0 0 198 198" fill="none" xmlns="http://www.w3.org/2000/svg">
<rect y="98.9949" width="140" height="140" rx="23" transform="rotate(-45 0 98.9949)" fill="#3C3C3C"/>
<rect x="25.4523" y="99.4975" width="104.716" height="104.716" rx="14.5" transform="rotate(-45 25.4523 99.4975)" stroke="#F5F5F5" stroke-width="7"/>
<path d="M78.176 117.776L83.104 117.136V79.76L78.432 78.864V74.448H88.288C89.0987 74.448 89.9733 74.4267 90.912 74.384C91.8933 74.3413 92.64 74.2987 93.152 74.256C95.456 74.0853 97.4187 74 99.04 74C103.605 74 107.232 74.448 109.92 75.344C112.608 76.1973 114.549 77.5627 115.744 79.44C116.981 81.2747 117.6 83.7067 117.6 86.736C117.6 89.6373 116.832 92.3467 115.296 94.864C113.76 97.3813 111.499 99.1093 108.512 100.048C110.475 100.773 112.117 102.139 113.44 104.144C114.805 106.107 116.213 108.624 117.664 111.696C118.517 113.488 119.2 114.832 119.712 115.728C120.224 116.581 120.757 117.072 121.312 117.2L123.168 117.776V122H111.008C110.368 122 109.707 121.317 109.024 119.952C108.341 118.587 107.467 116.453 106.4 113.552C105.077 110.011 103.925 107.28 102.944 105.36C102.005 103.397 100.96 102.203 99.808 101.776H94.048V117.136L99.744 117.776V122H78.176V117.776ZM98.976 97.616C101.195 97.616 102.923 96.7627 104.16 95.056C105.397 93.3067 106.016 90.6827 106.016 87.184C106.016 84.112 105.397 81.872 104.16 80.464C102.965 79.0133 100.939 78.288 98.08 78.288C96.544 78.288 95.2 78.3947 94.048 78.608V97.424C94.6027 97.552 95.52 97.616 96.8 97.616C98.08 97.616 98.8053 97.616 98.976 97.616Z" fill="#F5F5F5"/>
</svg>
